# Blender v2.78 (sub 0) OBJ File: ''
# www.blender.org
mtllib door.mtl
o Cube
v 0.111992 0.003591 -0.537208
v 0.111992 0.003591 0.549309
v 0.003340 0.003591 0.549309
v 0.003340 0.003591 -0.537208
v 0.111992 1.090107 -0.537208
v 0.111991 1.090107 0.549309
v 0.003340 1.090107 0.549308
v 0.003340 1.090107 -0.537208
v 0.111992 0.003591 0.422967
v 0.003340 0.003591 0.422967
v 0.111991 1.090107 0.422967
v 0.003340 1.090107 0.422967
v 0.003340 0.003591 -0.405084
v 0.003340 1.090107 -0.405084
v 0.111992 0.003591 -0.405084
v 0.111992 1.090107 -0.405084
v 0.111992 0.992716 -0.537208
v 0.111991 0.992716 0.549309
v 0.003340 0.992716 0.549308
v 0.003340 0.992716 -0.537208
v 0.003340 0.992716 0.422967
v 0.111992 0.992716 0.422967
v 0.111992 0.992716 -0.405084
v 0.003340 0.992716 -0.405084
v 0.111992 0.003591 0.008941
v 0.111992 1.090107 0.008942
v 0.003340 0.003591 0.008941
v 0.003340 1.090107 0.008941
v 0.003340 0.992716 0.008941
v 0.111992 0.992716 0.008942
v 0.092272 0.003591 0.008941
v 0.092272 0.003591 0.422967
v 0.092272 0.992716 0.422967
v 0.092272 0.992716 0.008942
v 0.090450 0.992716 -0.405084
v 0.090450 0.003591 -0.405084
v 0.090450 0.003591 0.008941
v 0.090450 0.992716 0.008942
vn 0.0000 -1.0000 0.0000
vn 0.0000 1.0000 -0.0000
vn 1.0000 0.0000 0.0000
vn -0.0000 -0.0000 1.0000
vn -1.0000 0.0000 -0.0000
vn 0.0000 0.0000 -1.0000
usemtl Material
s off
f 9//1 2//1 3//1 10//1
f 11//2 12//2 7//2 6//2
f 22//3 11//3 6//3 18//3
f 18//4 6//4 7//4 19//4
f 24//5 14//5 8//5 20//5
f 17//6 1//6 4//6 20//6
f 19//5 7//5 12//5 21//5
f 30//3 26//3 11//3 22//3
f 26//2 28//2 12//2 11//2
f 25//1 9//1 10//1 27//1
f 1//1 15//1 13//1 4//1
f 5//2 8//2 14//2 16//2
f 17//3 5//3 16//3 23//3
f 29//5 28//5 14//5 24//5
f 27//5 29//5 24//5 13//5
f 1//3 17//3 23//3 15//3
f 22//6 9//6 32//6 33//6
f 3//5 19//5 21//5 10//5
f 5//6 17//6 20//6 8//6
f 13//5 24//5 20//5 4//5
f 2//4 18//4 19//4 3//4
f 9//3 22//3 18//3 2//3
f 30//6 25//6 37//6 38//6
f 10//5 21//5 29//5 27//5
f 21//5 12//5 28//5 29//5
f 15//1 25//1 27//1 13//1
f 16//2 14//2 28//2 26//2
f 23//3 16//3 26//3 30//3
f 31//3 34//3 33//3 32//3
f 25//4 30//4 34//4 31//4
f 30//1 22//1 33//1 34//1
f 9//2 25//2 31//2 32//2
f 36//3 35//3 38//3 37//3
f 15//4 23//4 35//4 36//4
f 25//2 15//2 36//2 37//2
f 23//1 30//1 38//1 35//1
