# Blender v2.78 (sub 0) OBJ File: ''
# www.blender.org
mtllib reddesk.mtl
o Cube
v 1.000000 2.434677 -1.000000
v 1.000000 2.434677 1.000000
v -1.000000 2.434677 1.000000
v -1.000000 2.434677 -1.000000
v 1.000000 2.634677 -0.999999
v 0.999999 2.634677 1.000001
v -1.000000 2.634677 1.000000
v -1.000000 2.634677 -1.000000
v -0.751961 2.434677 -1.000000
v -0.751962 2.434677 1.000000
v -0.751961 2.634677 -1.000000
v -0.751962 2.634677 1.000000
v 0.717964 2.434677 -1.000000
v 0.717964 2.434677 1.000000
v 0.717964 2.634677 -1.000000
v 0.717963 2.634677 1.000000
v 1.000000 2.434677 0.804279
v -1.000000 2.434677 0.804278
v 0.999999 2.634677 0.804279
v -1.000000 2.634677 0.804278
v -0.751962 2.634677 0.804278
v -0.751962 2.434677 0.804278
v 0.717964 2.434677 0.804278
v 0.717963 2.634677 0.804279
v -1.000000 2.434677 -0.795608
v -1.000000 2.634677 -0.795607
v -0.751961 2.434677 -0.795608
v 0.717964 2.434677 -0.795607
v 1.000000 2.434677 -0.795607
v 1.000000 2.634677 -0.795607
v -0.751961 2.634677 -0.795607
v 0.717964 2.634677 -0.795607
v -0.751962 0.934677 1.000000
v -1.000000 0.934677 1.000000
v -1.000000 0.934677 0.804278
v -0.751962 0.934677 0.804278
v 1.000000 0.934677 0.804279
v 1.000000 0.934677 1.000000
v 0.717964 0.934677 1.000000
v 0.717964 0.934677 0.804278
v 1.000000 0.934677 -1.000000
v 0.717964 0.934677 -1.000000
v 0.717964 0.934677 -0.795607
v 1.000000 0.934677 -0.795607
v -0.751961 0.934677 -1.000000
v -1.000000 0.934677 -1.000000
v -1.000000 0.934677 -0.795608
v -0.751961 0.934677 -0.795608
vt -0.4979 1.2390
vt -0.3863 1.2390
vt -0.3863 2.1257
vt -0.4979 2.1257
vt 1.0444 -0.9791
vt 1.0444 -1.1257
vt 1.1560 -1.1257
vt 1.1560 -0.9791
vt 0.9278 0.1723
vt 0.8137 0.1723
vt 0.8137 0.0566
vt 0.9278 0.0566
vt -0.2701 1.0923
vt -0.1560 1.0923
vt -0.1560 1.2390
vt -0.2701 1.2390
vt 1.2701 -1.0049
vt 1.1560 -1.0049
vt 1.1560 -1.1257
vt 1.2701 -1.1257
vt -0.1560 1.0923
vt -0.0419 1.0923
vt -0.0419 1.2390
vt -0.1560 1.2390
vt -0.1560 0.2233
vt -0.0419 0.2234
vt -0.2701 0.2233
vt -0.1560 0.2234
vt 1.0444 -0.1101
vt 1.1560 -0.1101
vt -0.9649 -1.0100
vt -0.9649 -1.1257
vt -0.1264 -1.1257
vt -0.1264 -1.0100
vt 1.7835 0.0566
vt 1.7835 0.1723
vt 1.0444 0.0566
vt 1.1560 0.0566
vt -0.2701 0.0566
vt -0.1560 0.0566
vt -0.1560 0.0566
vt -0.0419 0.0566
vt 0.1317 0.0566
vt 0.1317 -0.1101
vt -1.1257 -0.0642
vt -1.1257 -1.0100
vt -0.9649 -0.0642
vt -0.1264 -0.0642
vt 0.1317 -0.9791
vt 1.2701 0.0566
vt 1.1560 0.0566
vt 1.1560 -0.0591
vt 1.2701 -0.0591
vt 0.9278 1.1181
vt 0.8137 1.1181
vt 0.1317 -1.1257
vt 0.0151 -1.0100
vt 0.0151 -0.0642
vt 2.1257 -1.1257
vt 2.1257 -1.0049
vt 0.0151 -0.9791
vt 0.0151 -1.1257
vt 0.9278 1.2390
vt 0.8137 1.2390
vt 0.0151 -0.1101
vt -0.9649 0.0566
vt -0.1264 0.0566
vt 0.8137 0.0566
vt 0.8137 0.2233
vt 0.0151 0.0566
vt -0.0414 1.2390
vt 0.0702 1.2390
vt 0.0702 1.3856
vt -0.0414 1.3856
vt 2.1257 -0.0591
vt 2.1257 0.0566
vt -1.1257 1.2390
vt -1.1257 1.0923
vt -1.1257 1.2390
vt -0.9843 1.2390
vt -0.9843 2.1257
vt -1.1257 2.1257
vt -0.2697 1.2390
vt -0.1580 1.2390
vt -0.1580 1.4057
vt -0.2697 1.4057
vt -0.6096 1.2390
vt -0.4979 1.2390
vt -0.4979 2.1257
vt -0.6096 2.1257
vt -1.1257 0.2233
vt -1.1257 0.0566
vt 1.9444 1.8302
vt 1.7835 1.8302
vt 1.7835 0.9434
vt 1.9444 0.9434
vt -0.2697 1.4057
vt -0.3863 1.4057
vt -0.3863 1.2390
vt -0.2697 1.2390
vt 1.7835 1.1181
vt 1.7835 1.2390
vt -0.7262 1.2390
vt -0.6096 1.2390
vt -0.6096 2.1257
vt -0.7262 2.1257
vt 1.7835 0.0566
vt 1.9444 0.0566
vt 1.9444 0.9434
vt 1.7835 0.9434
vt -0.1580 1.2390
vt -0.0414 1.2390
vt -0.0414 1.3856
vt -0.1580 1.3856
vt 0.8137 1.0923
vt 0.8137 1.2390
vt -0.7262 2.1257
vt -0.8428 2.1257
vt -0.8428 1.2390
vt -0.7262 1.2390
vt -0.9843 2.1257
vt -0.9843 1.2390
vn 1.0000 0.0000 0.0000
vn 0.0000 1.0000 0.0000
vn 0.0000 0.0000 1.0000
vn -1.0000 -0.0000 -0.0000
vn 0.0000 0.0000 -1.0000
vn 0.0000 -1.0000 -0.0000
usemtl Material
s off
f 22/1/1 10/2/1 33/3/1 36/4/1
f 21/5/2 20/6/2 7/7/2 12/8/2
f 17/9/1 19/10/1 6/11/1 2/12/1
f 10/13/3 12/14/3 7/15/3 3/16/3
f 25/17/4 26/18/4 8/19/4 4/20/4
f 11/21/5 9/22/5 4/23/5 8/24/5
f 15/25/5 13/26/5 9/22/5 11/21/5
f 14/27/3 16/28/3 12/14/3 10/13/3
f 24/29/2 21/5/2 12/8/2 16/30/2
f 23/31/6 14/32/6 10/33/6 22/34/6
f 17/9/1 2/12/1 38/35/1 37/36/1
f 19/37/2 24/29/2 16/30/2 6/38/2
f 2/39/3 6/40/3 16/28/3 14/27/3
f 5/41/5 1/42/5 13/26/5 15/25/5
f 30/43/2 32/44/2 24/29/2 19/37/2
f 29/45/6 17/46/6 23/31/6 28/47/6
f 28/47/6 23/31/6 22/34/6 27/48/6
f 32/44/2 31/49/2 21/5/2 24/29/2
f 3/50/4 7/51/4 20/52/4 18/53/4
f 29/54/1 30/55/1 19/10/1 17/9/1
f 31/49/2 26/56/2 20/6/2 21/5/2
f 27/48/6 22/34/6 18/57/6 25/58/6
f 25/17/4 4/20/4 46/59/4 47/60/4
f 11/61/2 8/62/2 26/56/2 31/49/2
f 1/63/1 5/64/1 30/55/1 29/54/1
f 15/65/2 11/61/2 31/49/2 32/44/2
f 13/66/6 28/47/6 27/48/6 9/67/6
f 13/26/5 1/42/5 41/68/5 42/69/5
f 5/70/2 15/65/2 32/44/2 30/43/2
f 18/53/4 20/52/4 26/18/4 25/17/4
f 36/71/6 33/72/6 34/73/6 35/74/6
f 3/50/4 18/53/4 35/75/4 34/76/4
f 10/13/3 3/16/3 34/77/3 33/78/3
f 18/79/5 22/80/5 36/81/5 35/82/5
f 37/83/6 38/84/6 39/85/6 40/86/6
f 14/87/4 23/88/4 40/89/4 39/90/4
f 2/39/3 14/27/3 39/91/3 38/92/3
f 23/93/5 17/94/5 37/95/5 40/96/5
f 41/97/6 44/98/6 43/99/6 42/100/6
f 1/63/1 29/54/1 44/101/1 41/102/1
f 28/103/4 13/104/4 42/105/4 43/106/4
f 29/107/3 28/108/3 43/109/3 44/110/3
f 45/111/6 48/112/6 47/113/6 46/114/6
f 4/23/5 9/22/5 45/115/5 46/116/5
f 9/117/1 27/118/1 48/119/1 45/120/1
f 27/118/3 25/121/3 47/122/3 48/119/3
