# Blender v2.78 (sub 0) OBJ File: ''
# www.blender.org
mtllib lamp.mtl
o Cube
v -0.038029 -0.000254 0.003933
v -0.079143 0.788016 0.007360
v 0.016790 0.068270 0.005646
v -0.038029 0.068270 0.058752
v -0.092847 0.068270 0.005646
v -0.038029 0.068270 -0.047459
v -0.038029 1.657215 0.082202
v -0.038029 0.788016 -0.030328
v -0.038029 0.788016 0.045047
v 0.003085 0.788016 0.007360
v -0.038029 1.665638 0.072457
v 0.040320 1.657215 0.003933
v -0.116710 1.642334 0.003933
v -0.106552 1.649775 -0.074997
v -0.038029 1.642334 -0.065601
v -0.106552 1.642334 0.003933
v 0.027434 1.642334 0.072457
v -0.038029 1.480360 0.067136
v -0.038029 1.478141 0.075784
v 0.019770 1.457813 0.058752
v -0.109943 1.478099 0.003933
v -0.092847 1.457514 -0.050203
v -0.087193 1.561347 0.003933
v -0.096872 1.480360 0.003933
v -0.096872 1.561347 0.072457
v -0.096872 1.561347 -0.064590
v -0.038029 1.480360 -0.062283
v -0.038029 1.480360 -0.065601
v 0.030495 1.561347 -0.065601
v -0.106552 1.561347 -0.065601
v -0.038029 1.561347 -0.057953
v -0.038029 1.642334 -0.062283
v -0.106552 1.561347 -0.062283
v 0.030495 1.561347 -0.062283
v -0.038029 1.561347 0.061815
v -0.106552 1.561347 0.067136
v 0.030495 1.561347 0.067136
v -0.038029 1.642334 0.067136
v 0.024373 1.561347 0.003933
v 0.027434 1.561347 -0.064590
v 0.027434 1.480360 0.003933
v 0.027434 1.561347 0.072457
v -0.038029 1.649775 0.091948
v -0.106552 1.649775 0.082202
v 0.030495 1.649775 0.082202
v -0.038029 1.642334 0.082202
v -0.096872 1.642334 0.003933
v -0.087193 1.642334 0.003933
v -0.096872 1.642334 0.072457
v -0.096872 1.642334 -0.064590
v -0.126869 1.649775 0.003933
v -0.116710 1.649775 -0.064590
v -0.116710 1.649775 0.072457
v -0.116710 1.657215 0.003933
v 0.027434 1.642334 0.003933
v 0.030495 1.642334 0.003933
v 0.024373 1.642334 0.003933
v 0.027434 1.642334 -0.064590
v 0.050146 1.649775 0.003933
v 0.040320 1.642334 0.003933
v 0.040321 1.649775 -0.064590
v 0.040320 1.649775 0.072457
v -0.038029 1.649775 -0.085404
v -0.038029 1.657215 -0.074997
v -0.038029 1.642334 -0.074997
v 0.030495 1.649775 -0.074997
v -0.038029 1.455364 0.065407
v 0.016790 1.459800 0.058752
v -0.038029 1.437022 0.048375
v -0.092847 1.457582 0.062080
v -0.099630 1.455279 0.005646
v -0.096239 1.457539 -0.047459
v -0.096239 1.457539 0.058752
v -0.082534 1.436979 0.007360
v -0.038029 1.455228 -0.052946
v -0.038029 1.478073 -0.067334
v 0.016790 1.457514 -0.050203
v -0.038029 1.436954 -0.033072
v 0.016790 1.457582 0.062080
v 0.030495 1.478141 0.075784
v 0.003085 1.437022 0.048375
v 0.016790 1.455364 0.065407
v 0.022751 1.455826 0.005646
v 0.006066 1.437253 0.007360
v 0.033475 1.478373 0.003933
v 0.019771 1.457813 -0.047459
v -0.038029 1.674061 0.003933
v 0.030495 1.665638 0.003933
v -0.106552 1.665638 0.003933
v -0.038029 1.665638 -0.064590
v 0.030495 -0.000254 0.003933
v -0.038029 -0.000254 -0.064590
v 0.003085 0.068270 -0.034183
v -0.038029 -0.000254 0.072457
v 0.003085 0.068270 0.045476
v -0.106552 -0.000254 0.003933
v -0.079143 0.068270 0.045476
v -0.079143 0.068270 -0.034183
v 0.006511 0.282468 0.006931
v -0.038029 0.282468 -0.034611
v -0.038029 0.282468 0.048473
v -0.082569 0.282468 0.006931
v 0.003085 1.439240 0.007360
v -0.038029 1.439240 -0.030328
v -0.038029 1.439240 0.045047
v -0.079143 1.439240 0.007360
v -0.068864 0.788016 0.035625
v -0.068864 0.788016 -0.020906
v -0.007193 0.788016 -0.020906
v -0.007193 0.788016 0.035625
v 0.030495 1.657215 0.003933
v -0.038029 1.657215 -0.064590
v -0.038029 1.657215 0.072457
v -0.106552 1.657215 0.003933
v 0.030495 1.649775 0.072457
v -0.092847 1.459800 0.058752
v 0.030495 1.649775 -0.064590
v -0.092847 1.459800 -0.047459
v 0.030495 1.561347 0.072457
v -0.106552 1.649775 0.072457
v 0.030495 1.561347 -0.064590
v -0.106552 1.649775 -0.064590
v -0.038029 1.642334 -0.064590
v -0.106552 1.642334 0.003933
v 0.030495 1.642334 0.003933
v -0.038029 1.642334 0.072457
v -0.106552 1.561347 0.072457
v -0.106552 1.561347 -0.064590
v 0.016790 1.459800 0.058752
v 0.016790 1.459800 -0.047459
v -0.038029 1.480360 0.072457
v 0.030495 1.480360 0.003933
v -0.106552 1.480360 0.003933
v -0.038029 1.480360 -0.064590
v -0.087193 1.642334 0.003933
v -0.087193 1.561347 0.072457
v -0.087193 1.561347 -0.064590
v -0.087193 1.480360 0.003933
v -0.096872 1.642334 -0.064590
v -0.096872 1.642334 0.072457
v -0.096872 1.480360 0.072457
v -0.096872 1.480360 -0.064590
v 0.030495 1.561347 -0.066612
v -0.038029 1.642334 -0.066613
v -0.106552 1.561347 -0.066613
v -0.038029 1.480360 -0.066613
v 0.030495 1.642334 -0.065601
v -0.106552 1.642334 -0.065601
v -0.106552 1.480360 -0.065601
v 0.030495 1.480360 -0.065601
v 0.030495 1.561347 -0.057953
v -0.038029 1.642334 -0.057953
v -0.106552 1.561347 -0.057953
v -0.038029 1.480360 -0.057953
v -0.106552 1.480360 -0.062283
v 0.030495 1.480360 -0.062283
v 0.030495 1.642334 -0.062283
v -0.106552 1.642334 -0.062283
v 0.030495 1.561347 0.061815
v -0.038029 1.642334 0.061815
v -0.106552 1.561347 0.061815
v -0.038029 1.480360 0.061815
v 0.030495 1.480360 0.067136
v -0.106552 1.480360 0.067136
v -0.106552 1.642334 0.067136
v 0.030495 1.642334 0.067136
v 0.024373 1.561347 0.072457
v 0.024373 1.561347 -0.064590
v 0.024373 1.642334 0.003933
v 0.024373 1.480360 0.003933
v 0.027434 1.642334 0.072457
v 0.027434 1.642334 -0.064590
v 0.027434 1.480360 -0.064590
v 0.027434 1.480360 0.072457
v -0.038029 1.657215 0.091948
v 0.030495 1.649775 0.091948
v -0.106552 1.649775 0.091948
v -0.038029 1.642334 0.091948
v -0.106552 1.657215 0.082202
v 0.030495 1.657215 0.082202
v -0.106552 1.642334 0.082202
v 0.030495 1.642334 0.082202
v -0.106552 1.642334 0.003933
v -0.087193 1.642334 0.003933
v -0.096872 1.642334 -0.064590
v -0.096872 1.642334 0.072457
v -0.106552 1.642334 -0.064590
v -0.106552 1.642334 0.072457
v -0.087193 1.642334 0.072457
v -0.087193 1.642334 -0.064590
v -0.126869 1.657215 0.003933
v -0.126869 1.649775 0.072457
v -0.126869 1.649775 -0.064590
v -0.126869 1.642334 0.003933
v -0.116710 1.642334 0.072457
v -0.116710 1.642334 -0.064590
v -0.116710 1.657215 -0.064590
v -0.116710 1.657215 0.072457
v 0.030495 1.642334 0.003933
v 0.024373 1.642334 0.003933
v 0.027434 1.642334 0.072457
v 0.027434 1.642334 -0.064590
v 0.024373 1.642334 0.072457
v 0.030495 1.642334 0.072457
v 0.030495 1.642334 -0.064590
v 0.024373 1.642334 -0.064590
v 0.050146 1.657215 0.003933
v 0.050146 1.649775 0.072457
v 0.050146 1.649775 -0.064590
v 0.050146 1.642334 0.003933
v 0.040320 1.657215 0.072457
v 0.040321 1.657215 -0.064590
v 0.040321 1.642334 -0.064590
v 0.040320 1.642334 0.072457
v -0.038029 1.657215 -0.085404
v 0.030495 1.649775 -0.085404
v -0.106552 1.649775 -0.085404
v -0.038029 1.642334 -0.085404
v -0.106552 1.657215 -0.074997
v -0.106552 1.642334 -0.074997
v 0.030495 1.657215 -0.074997
v 0.030495 1.642334 -0.074997
v -0.038029 1.434804 0.051703
v -0.092847 1.455364 0.065407
v 0.016790 1.455364 0.065407
v -0.038029 1.475923 0.079112
v -0.106552 1.478141 0.075784
v 0.030495 1.478141 0.075784
v 0.003085 1.437022 0.048375
v -0.079143 1.437022 0.048375
v -0.085925 1.434719 0.007360
v -0.099630 1.455279 0.058752
v -0.099630 1.455279 -0.047459
v -0.113335 1.475838 0.003933
v -0.109943 1.478099 -0.064590
v -0.109943 1.478099 0.072457
v -0.082534 1.436979 -0.030328
v -0.082534 1.436979 0.045047
v -0.038029 1.434668 -0.035816
v -0.092847 1.455228 -0.052946
v 0.016790 1.455228 -0.052946
v -0.038029 1.475787 -0.070077
v -0.106552 1.478073 -0.067334
v -0.079143 1.436954 -0.033072
v 0.030495 1.478073 -0.067334
v 0.003085 1.436954 -0.033072
v 0.016790 1.459800 0.058752
v 0.016790 1.455364 0.065407
v 0.030495 1.478141 0.075784
v 0.003085 1.437022 0.048375
v 0.030495 1.480360 0.072457
v 0.003085 1.439240 0.045047
v 0.030495 1.475923 0.079112
v 0.003085 1.434804 0.051703
v 0.009046 1.435266 0.007360
v 0.022751 1.455826 0.058752
v 0.022751 1.455826 -0.047459
v 0.036456 1.476386 0.003933
v 0.006066 1.437253 0.045047
v 0.033475 1.478373 0.072457
v 0.006066 1.437253 -0.030328
v 0.033475 1.478373 -0.064590
v 0.030495 1.674061 0.003933
v -0.038029 1.674061 -0.064590
v -0.038029 1.674061 0.072457
v -0.106552 1.674061 0.003933
v 0.030495 1.665638 0.072457
v -0.106552 1.665638 0.072457
v 0.030495 1.665638 -0.064590
v -0.106552 1.665638 -0.064590
v 0.013364 -0.000254 -0.047459
v 0.013364 -0.000254 0.055326
v -0.089421 -0.000254 0.055326
v -0.089421 -0.000254 -0.047459
v -0.004624 0.282468 -0.024225
v -0.004624 0.282468 0.038088
v -0.071434 0.282468 0.038088
v -0.071434 0.282468 -0.024225
v 0.003085 1.439240 -0.030328
v 0.003085 1.439240 0.045047
v -0.079143 1.439240 -0.030328
v -0.079143 1.439240 0.045047
v 0.030495 1.657215 -0.064590
v 0.030495 1.657215 0.072457
v -0.106552 1.657215 -0.064590
v -0.106552 1.657215 0.072457
v 0.030495 1.642334 0.072457
v -0.106552 1.642334 0.072457
v 0.030495 1.642334 -0.064590
v -0.106552 1.642334 -0.064590
v -0.106552 1.480360 0.072457
v -0.106552 1.480360 -0.064590
v 0.030495 1.480360 0.072457
v 0.030495 1.480360 -0.064590
v -0.087193 1.642334 0.072457
v -0.087193 1.642334 -0.064590
v -0.087193 1.480360 0.072457
v -0.087193 1.480360 -0.064590
v 0.030495 1.480360 -0.066612
v 0.030495 1.642334 -0.066612
v -0.106552 1.642334 -0.066613
v -0.106552 1.480360 -0.066613
v 0.030495 1.480360 -0.057953
v 0.030495 1.642334 -0.057953
v -0.106552 1.642334 -0.057953
v -0.106552 1.480360 -0.057953
v 0.030495 1.480360 0.061815
v 0.030495 1.642334 0.061815
v -0.106552 1.642334 0.061815
v -0.106552 1.480360 0.061815
v 0.024373 1.480360 0.072457
v 0.024373 1.642334 0.072457
v 0.024373 1.480360 -0.064590
v 0.024373 1.642334 -0.064590
v 0.030495 1.657215 0.091948
v -0.106552 1.657215 0.091948
v 0.030495 1.642334 0.091948
v -0.106552 1.642334 0.091948
v -0.106552 1.642334 0.072457
v -0.106552 1.642334 -0.064590
v -0.087193 1.642334 0.072457
v -0.087193 1.642334 -0.064590
v -0.126869 1.657215 0.072457
v -0.126869 1.657215 -0.064590
v -0.126869 1.642334 0.072457
v -0.126869 1.642334 -0.064590
v 0.030495 1.642334 -0.064590
v 0.030495 1.642334 0.072457
v 0.024373 1.642334 -0.064590
v 0.024373 1.642334 0.072457
v 0.050146 1.657215 -0.064590
v 0.050146 1.657215 0.072457
v 0.050146 1.642334 0.072457
v 0.050146 1.642334 -0.064590
v 0.030495 1.657215 -0.085404
v -0.106552 1.657215 -0.085404
v 0.030495 1.642334 -0.085404
v -0.106552 1.642334 -0.085404
v 0.003085 1.434804 0.051703
v -0.079143 1.434804 0.051702
v -0.106552 1.475923 0.079112
v 0.030495 1.475923 0.079112
v -0.085925 1.434719 0.045047
v -0.085925 1.434719 -0.030328
v -0.113335 1.475838 0.072457
v -0.113335 1.475838 -0.064590
v 0.003085 1.434668 -0.035816
v -0.079143 1.434668 -0.035816
v -0.106552 1.475787 -0.070077
v 0.030495 1.475787 -0.070077
v 0.003085 1.439240 0.045047
v 0.030495 1.480360 0.072457
v 0.003085 1.434804 0.051703
v 0.030495 1.475923 0.079112
v 0.009046 1.435266 -0.030328
v 0.009046 1.435266 0.045047
v 0.036456 1.476386 0.072457
v 0.036456 1.476386 -0.064590
v 0.030495 1.674061 -0.064590
v 0.030495 1.674061 0.072457
v -0.106552 1.674061 -0.064590
v -0.106552 1.674061 0.072457
vn 0.0000 -1.0000 -0.0000
vn -0.9408 0.0068 -0.3390
vn -0.9408 0.0063 0.3390
vn -0.9880 -0.0089 0.1540
vn -0.9880 -0.0089 -0.1540
vn 0.9288 0.1969 -0.3140
vn 0.9428 0.0482 -0.3299
vn 0.9430 0.0443 0.3300
vn 0.9316 0.1817 0.3149
vn 0.3070 0.1835 0.9339
vn 0.3023 0.0447 0.9522
vn -0.3023 0.0447 0.9522
vn -0.3070 0.1835 0.9339
vn -0.9316 0.1817 0.3149
vn -0.9430 0.0443 0.3300
vn -0.9428 0.0482 -0.3299
vn -0.9288 0.1969 -0.3140
vn 0.3022 0.0561 -0.9516
vn 0.3040 0.2280 -0.9250
vn -0.3040 0.2280 -0.9250
vn -0.3022 0.0561 -0.9516
vn 0.0000 1.0000 0.0000
vn 0.2946 0.0079 -0.9556
vn -0.2946 0.0079 -0.9556
vn -0.1298 -0.0082 -0.9915
vn 0.1298 -0.0082 -0.9915
vn -0.2946 0.0063 0.9556
vn 0.2946 0.0063 0.9556
vn 0.1298 -0.0082 0.9915
vn -0.1298 -0.0082 0.9915
vn 0.9408 0.0063 0.3390
vn 0.9408 0.0068 -0.3390
vn 0.9880 -0.0089 -0.1540
vn 0.9880 -0.0089 0.1540
vn 0.0000 0.0000 1.0000
vn -1.0000 0.0000 0.0000
vn 0.0000 0.8321 0.5546
vn 0.0000 0.8321 0.5547
vn -0.2690 -0.4036 0.8745
vn -0.5547 0.8321 0.0000
vn -0.5546 0.8321 0.0000
vn -0.8901 -0.3502 0.2918
vn 0.0000 0.0000 -1.0000
vn 1.0000 0.0000 0.0000
vn -0.0000 -0.5547 0.8321
vn 0.0000 -0.5546 0.8321
vn 0.0000 -0.8321 -0.5547
vn 0.0000 -0.8321 -0.5546
vn -0.8745 -0.4036 -0.2690
vn -0.8321 -0.5546 0.0000
vn 0.3160 -0.4741 -0.8218
vn 0.2690 -0.4036 0.8745
vn 0.5546 -0.8321 0.0000
vn 0.0000 -0.6401 -0.7683
vn 0.0000 0.7682 -0.6402
vn 0.0000 0.7683 -0.6401
vn 0.8901 -0.3502 0.2918
vn 0.0000 -0.7683 0.6401
vn 0.8745 -0.4036 -0.2690
vn 0.8321 -0.5546 0.0000
vn -0.5547 -0.8321 -0.0000
vn 0.5547 0.8321 -0.0000
vn -0.3160 -0.4741 -0.8218
usemtl Material
s off
f 1//1 92//1 271//1 91//1
f 1//1 91//1 272//1 94//1
f 1//1 94//1 273//1 96//1
f 1//1 96//1 274//1 92//1
f 2//2 108//2 278//2 102//2
f 2//3 102//3 277//3 107//3
f 2//4 107//4 282//4 106//4
f 2//5 106//5 281//5 108//5
f 3//6 91//6 271//6 93//6
f 3//7 93//7 275//7 99//7
f 3//8 99//8 276//8 95//8
f 3//9 95//9 272//9 91//9
f 4//10 94//10 272//10 95//10
f 4//11 95//11 276//11 101//11
f 4//12 101//12 277//12 97//12
f 4//13 97//13 273//13 94//13
f 5//14 96//14 273//14 97//14
f 5//15 97//15 277//15 102//15
f 5//16 102//16 278//16 98//16
f 5//17 98//17 274//17 96//17
f 6//18 100//18 275//18 93//18
f 6//19 93//19 271//19 92//19
f 6//20 92//20 274//20 98//20
f 6//21 98//21 278//21 100//21
f 7//22 180//22 284//22 113//22
f 7//22 113//22 286//22 179//22
f 7//22 179//22 316//22 175//22
f 7//22 175//22 315//22 180//22
f 8//23 109//23 275//23 100//23
f 8//24 100//24 278//24 108//24
f 8//25 108//25 281//25 104//25
f 8//26 104//26 279//26 109//26
f 9//27 107//27 277//27 101//27
f 9//28 101//28 276//28 110//28
f 9//29 110//29 280//29 105//29
f 9//30 105//30 282//30 107//30
f 10//31 110//31 276//31 99//31
f 10//32 99//32 275//32 109//32
f 10//33 109//33 279//33 103//33
f 10//34 103//34 280//34 110//34
f 11//35 268//35 286//35 113//35
f 11//35 113//35 284//35 267//35
f 11//35 267//35 360//35 265//35
f 11//35 265//35 362//35 268//35
f 12//22 212//22 283//22 111//22
f 12//22 111//22 284//22 211//22
f 12//22 211//22 332//22 207//22
f 12//22 207//22 331//22 212//22
f 13//1 196//1 290//1 124//1
f 13//1 124//1 288//1 195//1
f 13//1 195//1 325//1 194//1
f 13//1 194//1 326//1 196//1
f 14//36 220//36 290//36 122//36
f 14//36 122//36 285//36 219//36
f 14//36 219//36 336//36 217//36
f 14//36 217//36 338//36 220//36
f 15//22 148//22 290//22 123//22
f 15//22 123//22 289//22 147//22
f 15//22 147//22 300//22 144//22
f 15//22 144//22 301//22 148//22
f 16//35 188//35 288//35 124//35
f 16//35 124//35 290//35 187//35
f 16//35 187//35 320//35 183//35
f 16//35 183//35 319//35 188//35
f 17//35 204//35 287//35 171//35
f 17//35 171//35 312//35 203//35
f 17//35 203//35 330//35 201//35
f 17//35 201//35 328//35 204//35
f 18//22 164//22 291//22 131//22
f 18//22 131//22 293//22 163//22
f 18//22 163//22 307//22 162//22
f 18//22 162//22 310//22 164//22
f 19//37 228//37 293//37 131//37
f 19//38 131//38 291//38 227//38
f 19//38 227//38 341//38 226//38
f 19//38 226//38 342//38 228//38
f 20//39 260//39 293//39 129//39
f 20//39 129//39 280//39 259//39
f 20//39 259//39 356//39 256//39
f 20//39 256//39 357//39 260//39
f 21//40 236//40 291//40 133//40
f 21//40 133//40 292//40 235//40
f 21//41 235//41 346//41 234//41
f 21//41 234//41 345//41 236//41
f 22//42 244//42 281//42 118//42
f 22//42 118//42 292//42 243//42
f 22//42 243//42 349//42 240//42
f 22//42 240//42 348//42 244//42
f 23//36 137//36 298//36 138//36
f 23//36 138//36 297//36 136//36
f 23//36 136//36 295//36 135//36
f 23//36 135//36 296//36 137//36
f 24//22 142//22 292//22 133//22
f 24//22 133//22 291//22 141//22
f 24//22 141//22 297//22 138//22
f 24//22 138//22 298//22 142//22
f 25//43 141//43 291//43 127//43
f 25//43 127//43 288//43 140//43
f 25//43 140//43 295//43 136//43
f 25//43 136//43 297//43 141//43
f 26//35 139//35 290//35 128//35
f 26//35 128//35 292//35 142//35
f 26//35 142//35 298//35 137//35
f 26//35 137//35 296//35 139//35
f 27//22 156//22 299//22 146//22
f 27//22 146//22 302//22 155//22
f 27//22 155//22 306//22 154//22
f 27//22 154//22 303//22 156//22
f 28//1 150//1 294//1 134//1
f 28//1 134//1 292//1 149//1
f 28//1 149//1 302//1 146//1
f 28//1 146//1 299//1 150//1
f 29//44 147//44 289//44 121//44
f 29//44 121//44 294//44 150//44
f 29//44 150//44 299//44 143//44
f 29//44 143//44 300//44 147//44
f 30//36 149//36 292//36 128//36
f 30//36 128//36 290//36 148//36
f 30//36 148//36 301//36 145//36
f 30//36 145//36 302//36 149//36
f 31//43 151//43 303//43 154//43
f 31//43 154//43 306//43 153//43
f 31//43 153//43 305//43 152//43
f 31//43 152//43 304//43 151//43
f 32//1 158//1 301//1 144//1
f 32//1 144//1 300//1 157//1
f 32//1 157//1 304//1 152//1
f 32//1 152//1 305//1 158//1
f 33//44 155//44 302//44 145//44
f 33//44 145//44 301//44 158//44
f 33//44 158//44 305//44 153//44
f 33//44 153//44 306//44 155//44
f 34//36 157//36 300//36 143//36
f 34//36 143//36 299//36 156//36
f 34//36 156//36 303//36 151//36
f 34//36 151//36 304//36 157//36
f 35//35 161//35 310//35 162//35
f 35//35 162//35 307//35 159//35
f 35//35 159//35 308//35 160//35
f 35//35 160//35 309//35 161//35
f 36//44 165//44 288//44 127//44
f 36//44 127//44 291//44 164//44
f 36//44 164//44 310//44 161//44
f 36//44 161//44 309//44 165//44
f 37//36 163//36 293//36 119//36
f 37//36 119//36 287//36 166//36
f 37//36 166//36 308//36 159//36
f 37//36 159//36 307//36 163//36
f 38//1 166//1 287//1 126//1
f 38//1 126//1 288//1 165//1
f 38//1 165//1 309//1 160//1
f 38//1 160//1 308//1 166//1
f 39//44 167//44 311//44 170//44
f 39//44 170//44 313//44 168//44
f 39//44 168//44 314//44 169//44
f 39//44 169//44 312//44 167//44
f 40//35 173//35 294//35 121//35
f 40//35 121//35 289//35 172//35
f 40//35 172//35 314//35 168//35
f 40//35 168//35 313//35 173//35
f 41//22 174//22 293//22 132//22
f 41//22 132//22 294//22 173//22
f 41//22 173//22 313//22 170//22
f 41//22 170//22 311//22 174//22
f 42//43 171//43 287//43 119//43
f 42//43 119//43 293//43 174//43
f 42//43 174//43 311//43 167//43
f 42//43 167//43 312//43 171//43
f 43//35 177//35 318//35 178//35
f 43//35 178//35 317//35 176//35
f 43//35 176//35 315//35 175//35
f 43//35 175//35 316//35 177//35
f 44//36 179//36 286//36 120//36
f 44//36 120//36 288//36 181//36
f 44//36 181//36 318//36 177//36
f 44//36 177//36 316//36 179//36
f 45//44 182//44 287//44 115//44
f 45//44 115//44 284//44 180//44
f 45//44 180//44 315//44 176//44
f 45//44 176//44 317//44 182//44
f 46//1 181//1 288//1 126//1
f 46//1 126//1 287//1 182//1
f 46//1 182//1 317//1 178//1
f 46//1 178//1 318//1 181//1
f 47//1 186//1 319//1 183//1
f 47//1 183//1 320//1 185//1
f 47//1 185//1 322//1 184//1
f 47//1 184//1 321//1 186//1
f 48//35 190//35 296//35 135//35
f 48//35 135//35 295//35 189//35
f 48//35 189//35 321//35 184//35
f 48//35 184//35 322//35 190//35
f 49//35 189//35 295//35 140//35
f 49//35 140//35 288//35 188//35
f 49//35 188//35 319//35 186//35
f 49//35 186//35 321//35 189//35
f 50//35 187//35 290//35 139//35
f 50//35 139//35 296//35 190//35
f 50//35 190//35 322//35 185//35
f 50//35 185//35 320//35 187//35
f 51//36 193//36 326//36 194//36
f 51//36 194//36 325//36 192//36
f 51//36 192//36 323//36 191//36
f 51//36 191//36 324//36 193//36
f 52//43 197//43 285//43 122//43
f 52//43 122//43 290//43 196//43
f 52//43 196//43 326//43 193//43
f 52//43 193//43 324//43 197//43
f 53//35 195//35 288//35 120//35
f 53//35 120//35 286//35 198//35
f 53//35 198//35 323//35 192//35
f 53//35 192//35 325//35 195//35
f 54//22 198//22 286//22 114//22
f 54//22 114//22 285//22 197//22
f 54//22 197//22 324//22 191//22
f 54//22 191//22 323//22 198//22
f 55//1 202//1 327//1 199//1
f 55//1 199//1 328//1 201//1
f 55//1 201//1 330//1 200//1
f 55//1 200//1 329//1 202//1
f 56//35 205//35 289//35 125//35
f 56//35 125//35 287//35 204//35
f 56//35 204//35 328//35 199//35
f 56//35 199//35 327//35 205//35
f 57//35 203//35 312//35 169//35
f 57//35 169//35 314//35 206//35
f 57//35 206//35 329//35 200//35
f 57//35 200//35 330//35 203//35
f 58//35 206//35 314//35 172//35
f 58//35 172//35 289//35 205//35
f 58//35 205//35 327//35 202//35
f 58//35 202//35 329//35 206//35
f 59//44 208//44 333//44 210//44
f 59//44 210//44 334//44 209//44
f 59//44 209//44 331//44 207//44
f 59//44 207//44 332//44 208//44
f 60//1 214//1 287//1 125//1
f 60//1 125//1 289//1 213//1
f 60//1 213//1 334//1 210//1
f 60//1 210//1 333//1 214//1
f 61//43 213//43 289//43 117//43
f 61//43 117//43 283//43 212//43
f 61//43 212//43 331//43 209//43
f 61//43 209//43 334//43 213//43
f 62//35 211//35 284//35 115//35
f 62//35 115//35 287//35 214//35
f 62//35 214//35 333//35 208//35
f 62//35 208//35 332//35 211//35
f 63//43 216//43 337//43 218//43
f 63//43 218//43 338//43 217//43
f 63//43 217//43 336//43 215//43
f 63//43 215//43 335//43 216//43
f 64//22 219//22 285//22 112//22
f 64//22 112//22 283//22 221//22
f 64//22 221//22 335//22 215//22
f 64//22 215//22 336//22 219//22
f 65//1 222//1 289//1 123//1
f 65//1 123//1 290//1 220//1
f 65//1 220//1 338//1 218//1
f 65//1 218//1 337//1 222//1
f 66//44 221//44 283//44 117//44
f 66//44 117//44 289//44 222//44
f 66//44 222//44 337//44 216//44
f 66//44 216//44 335//44 221//44
f 67//45 224//45 340//45 223//45
f 67//46 223//46 339//46 225//46
f 67//45 225//45 342//45 226//45
f 67//46 226//46 341//46 224//46
f 68//35 252//35 280//35 129//35
f 68//35 129//35 293//35 251//35
f 68//35 251//35 352//35 247//35
f 68//35 247//35 351//35 252//35
f 69//47 230//47 282//47 105//47
f 69//47 105//47 280//47 229//47
f 69//47 229//47 339//47 223//47
f 69//48 223//48 340//48 230//48
f 70//49 227//49 291//49 116//49
f 70//49 116//49 282//49 230//49
f 70//49 230//49 340//49 224//49
f 70//49 224//49 341//49 227//49
f 71//50 233//50 344//50 231//50
f 71//50 231//50 343//50 232//50
f 71//50 232//50 345//50 234//50
f 71//50 234//50 346//50 233//50
f 72//51 235//51 292//51 118//51
f 72//51 118//51 281//51 237//51
f 72//51 237//51 344//51 233//51
f 72//51 233//51 346//51 235//51
f 73//52 238//52 282//52 116//52
f 73//52 116//52 291//52 236//52
f 73//52 236//52 345//52 232//52
f 73//52 232//52 343//52 238//52
f 74//53 237//53 281//53 106//53
f 74//53 106//53 282//53 238//53
f 74//53 238//53 343//53 231//53
f 74//53 231//53 344//53 237//53
f 75//54 241//54 347//54 239//54
f 75//54 239//54 348//54 240//54
f 75//54 240//54 349//54 242//54
f 75//54 242//54 350//54 241//54
f 76//55 243//55 292//55 134//55
f 76//55 134//55 294//55 245//55
f 76//56 245//56 350//56 242//56
f 76//56 242//56 349//56 243//56
f 77//57 245//57 294//57 130//57
f 77//57 130//57 279//57 246//57
f 77//57 246//57 347//57 241//57
f 77//57 241//57 350//57 245//57
f 78//58 246//58 279//58 104//58
f 78//58 104//58 281//58 244//58
f 78//58 244//58 348//58 239//58
f 78//58 239//58 347//58 246//58
f 79//59 250//59 351//59 247//59
f 79//59 247//59 352//59 249//59
f 79//59 249//59 354//59 248//59
f 79//59 248//59 353//59 250//59
f 80//35 251//35 293//35 228//35
f 80//35 228//35 342//35 253//35
f 80//35 253//35 354//35 249//35
f 80//35 249//35 352//35 251//35
f 81//35 254//35 339//35 229//35
f 81//35 229//35 280//35 252//35
f 81//35 252//35 351//35 250//35
f 81//35 250//35 353//35 254//35
f 82//35 253//35 342//35 225//35
f 82//35 225//35 339//35 254//35
f 82//35 254//35 353//35 248//35
f 82//35 248//35 354//35 253//35
f 83//60 256//60 356//60 255//60
f 83//60 255//60 355//60 257//60
f 83//60 257//60 358//60 258//60
f 83//60 258//60 357//60 256//60
f 84//61 259//61 280//61 103//61
f 84//61 103//61 279//61 261//61
f 84//61 261//61 355//61 255//61
f 84//61 255//61 356//61 259//61
f 85//62 262//62 294//62 132//62
f 85//62 132//62 293//62 260//62
f 85//62 260//62 357//62 258//62
f 85//62 258//62 358//62 262//62
f 86//63 261//63 279//63 130//63
f 86//63 130//63 294//63 262//63
f 86//63 262//63 358//63 257//63
f 86//63 257//63 355//63 261//63
f 87//22 263//22 359//22 264//22
f 87//22 264//22 361//22 266//22
f 87//22 266//22 362//22 265//22
f 87//22 265//22 360//22 263//22
f 88//44 267//44 284//44 111//44
f 88//44 111//44 283//44 269//44
f 88//44 269//44 359//44 263//44
f 88//44 263//44 360//44 267//44
f 89//36 270//36 285//36 114//36
f 89//36 114//36 286//36 268//36
f 89//36 268//36 362//36 266//36
f 89//36 266//36 361//36 270//36
f 90//43 269//43 283//43 112//43
f 90//43 112//43 285//43 270//43
f 90//43 270//43 361//43 264//43
f 90//43 264//43 359//43 269//43
